<svg width="51" height="51" viewBox="0 0 51 51" xmlns="http://www.w3.org/2000/svg">
<path d="M21.588 37.9486V33.6835C21.588 32.5947 22.4771 31.7121 23.5738 31.7121H27.5829C28.1096 31.7121 28.6147 31.9198 28.9871 32.2895C29.3595 32.6592 29.5688 33.1606 29.5688 33.6835V37.9486C29.5654 38.4013 29.7442 38.8365 30.0655 39.1577C30.3867 39.479 30.8238 39.6596 31.2798 39.6596H34.015C35.2924 39.6629 36.5187 39.1615 37.4231 38.2659C38.3276 37.3703 38.8359 36.1543 38.8359 34.8861V22.7355C38.8359 21.7111 38.3785 20.7394 37.587 20.0822L28.2823 12.705C26.6638 11.4115 24.3447 11.4532 22.7745 12.8041L13.6822 20.0822C12.8533 20.72 12.3578 21.6946 12.3333 22.7355V34.8737C12.3333 37.5169 14.4917 39.6596 17.1543 39.6596H19.827C20.774 39.6596 21.5437 38.9011 21.5505 37.961L21.588 37.9486Z" />
</svg>
