<svg xmlns="http://www.w3.org/2000/svg" xmlns:xlink="http://www.w3.org/1999/xlink" width="308" zoomAndPan="magnify" viewBox="0 0 230.87999 179.999997" height="240" preserveAspectRatio="xMidYMid meet" version="1.0"><defs><clipPath id="6ec97e2dd0"><path d="M 0 0.046875 L 230.128906 0.046875 L 230.128906 35.277344 L 0 35.277344 Z M 0 0.046875 " clip-rule="nonzero"/></clipPath><clipPath id="5628a67744"><path d="M 0 17.839844 C 0 27.667969 7.96875 35.636719 17.792969 35.636719 L 212.484375 35.636719 C 222.3125 35.636719 230.28125 27.667969 230.28125 17.839844 C 230.28125 8.011719 222.3125 0.046875 212.484375 0.046875 L 17.792969 0.046875 C 7.96875 0.046875 0 8.011719 0 17.839844 Z M 0 17.839844 " clip-rule="nonzero"/></clipPath><clipPath id="3f2611ac3d"><path d="M 0 48.023438 L 230.128906 48.023438 L 230.128906 83.253906 L 0 83.253906 Z M 0 48.023438 " clip-rule="nonzero"/></clipPath><clipPath id="5529abd1bc"><path d="M 0 65.816406 C 0 75.644531 7.96875 83.609375 17.792969 83.609375 L 212.484375 83.609375 C 222.3125 83.609375 230.28125 75.644531 230.28125 65.816406 C 230.28125 55.988281 222.3125 48.023438 212.484375 48.023438 L 17.792969 48.023438 C 7.96875 48.023438 0 55.988281 0 65.816406 Z M 0 65.816406 " clip-rule="nonzero"/></clipPath><clipPath id="8fc0200f12"><path d="M 0 95.996094 L 230.128906 95.996094 L 230.128906 131.230469 L 0 131.230469 Z M 0 95.996094 " clip-rule="nonzero"/></clipPath><clipPath id="6dce68fe86"><path d="M 0 113.792969 C 0 123.617188 7.96875 131.585938 17.792969 131.585938 L 212.484375 131.585938 C 222.3125 131.585938 230.28125 123.617188 230.28125 113.792969 C 230.28125 103.964844 222.3125 95.996094 212.484375 95.996094 L 17.792969 95.996094 C 7.96875 95.996094 0 103.964844 0 113.792969 Z M 0 113.792969 " clip-rule="nonzero"/></clipPath><clipPath id="7d5299933e"><path d="M 0 143.972656 L 230.128906 143.972656 L 230.128906 179.203125 L 0 179.203125 Z M 0 143.972656 " clip-rule="nonzero"/></clipPath><clipPath id="7ec7590785"><path d="M 0 161.765625 C 0 171.59375 7.96875 179.5625 17.792969 179.5625 L 212.484375 179.5625 C 222.3125 179.5625 230.28125 171.59375 230.28125 161.765625 C 230.28125 151.9375 222.3125 143.972656 212.484375 143.972656 L 17.792969 143.972656 C 7.96875 143.972656 0 151.9375 0 161.765625 Z M 0 161.765625 " clip-rule="nonzero"/></clipPath></defs><g clip-path="url(#6ec97e2dd0)"><g clip-path="url(#5628a67744)"><path fill="#737373" d="M 14.464844 0.046875 L 215.804688 0.046875 C 216.753906 0.046875 217.691406 0.136719 218.621094 0.324219 C 219.546875 0.507812 220.449219 0.78125 221.324219 1.144531 C 222.199219 1.507812 223.03125 1.949219 223.820312 2.476562 C 224.605469 3.003906 225.335938 3.601562 226.003906 4.269531 C 226.675781 4.941406 227.273438 5.667969 227.796875 6.457031 C 228.324219 7.242188 228.769531 8.074219 229.132812 8.949219 C 229.492188 9.824219 229.765625 10.726562 229.953125 11.65625 C 230.136719 12.585938 230.230469 13.523438 230.230469 14.46875 L 230.230469 21.207031 C 230.230469 22.15625 230.136719 23.09375 229.953125 24.023438 C 229.765625 24.949219 229.492188 25.851562 229.132812 26.726562 C 228.769531 27.601562 228.324219 28.433594 227.796875 29.222656 C 227.273438 30.007812 226.675781 30.738281 226.003906 31.40625 C 225.335938 32.078125 224.605469 32.675781 223.820312 33.199219 C 223.03125 33.726562 222.199219 34.171875 221.324219 34.535156 C 220.449219 34.894531 219.546875 35.167969 218.621094 35.355469 C 217.691406 35.539062 216.753906 35.632812 215.804688 35.632812 L 14.464844 35.632812 C 13.519531 35.632812 12.582031 35.539062 11.652344 35.355469 C 10.722656 35.167969 9.820312 34.894531 8.945312 34.535156 C 8.070312 34.171875 7.238281 33.726562 6.453125 33.199219 C 5.664062 32.675781 4.9375 32.078125 4.265625 31.40625 C 3.597656 30.738281 3 30.007812 2.472656 29.222656 C 1.945312 28.433594 1.503906 27.601562 1.140625 26.726562 C 0.777344 25.851562 0.503906 24.949219 0.320312 24.023438 C 0.132812 23.09375 0.0429688 22.15625 0.0429688 21.207031 L 0.0429688 14.46875 C 0.0429688 13.523438 0.132812 12.585938 0.320312 11.65625 C 0.503906 10.726562 0.777344 9.824219 1.140625 8.949219 C 1.503906 8.074219 1.945312 7.242188 2.472656 6.457031 C 3 5.667969 3.597656 4.941406 4.265625 4.269531 C 4.9375 3.601562 5.664062 3.003906 6.453125 2.476562 C 7.238281 1.949219 8.070312 1.507812 8.945312 1.144531 C 9.820312 0.78125 10.722656 0.507812 11.652344 0.324219 C 12.582031 0.136719 13.519531 0.046875 14.464844 0.046875 Z M 14.464844 0.046875 " fill-opacity="1" fill-rule="nonzero"/></g></g><g clip-path="url(#3f2611ac3d)"><g clip-path="url(#5529abd1bc)"><path fill="#737373" d="M 14.464844 48.019531 L 215.804688 48.019531 C 216.753906 48.019531 217.691406 48.113281 218.621094 48.296875 C 219.546875 48.484375 220.449219 48.757812 221.324219 49.117188 C 222.199219 49.480469 223.03125 49.925781 223.820312 50.453125 C 224.605469 50.976562 225.335938 51.574219 226.003906 52.246094 C 226.675781 52.914062 227.273438 53.644531 227.796875 54.429688 C 228.324219 55.21875 228.769531 56.050781 229.132812 56.925781 C 229.492188 57.800781 229.765625 58.703125 229.953125 59.628906 C 230.136719 60.558594 230.230469 61.496094 230.230469 62.445312 L 230.230469 69.183594 C 230.230469 70.128906 230.136719 71.066406 229.953125 71.996094 C 229.765625 72.925781 229.492188 73.828125 229.132812 74.703125 C 228.769531 75.578125 228.324219 76.410156 227.796875 77.195312 C 227.273438 77.984375 226.675781 78.710938 226.003906 79.382812 C 225.335938 80.050781 224.605469 80.648438 223.820312 81.175781 C 223.03125 81.703125 222.199219 82.144531 221.324219 82.507812 C 220.449219 82.871094 219.546875 83.144531 218.621094 83.328125 C 217.691406 83.515625 216.753906 83.605469 215.804688 83.605469 L 14.464844 83.605469 C 13.519531 83.605469 12.582031 83.515625 11.652344 83.328125 C 10.722656 83.144531 9.820312 82.871094 8.945312 82.507812 C 8.070312 82.144531 7.238281 81.703125 6.453125 81.175781 C 5.664062 80.648438 4.9375 80.050781 4.265625 79.382812 C 3.597656 78.710938 3 77.984375 2.472656 77.195312 C 1.945312 76.410156 1.503906 75.578125 1.140625 74.703125 C 0.777344 73.828125 0.503906 72.925781 0.320312 71.996094 C 0.132812 71.066406 0.0429688 70.128906 0.0429688 69.183594 L 0.0429688 62.445312 C 0.0429688 61.496094 0.132812 60.558594 0.320312 59.628906 C 0.503906 58.703125 0.777344 57.800781 1.140625 56.925781 C 1.503906 56.050781 1.945312 55.21875 2.472656 54.429688 C 3 53.644531 3.597656 52.914062 4.265625 52.246094 C 4.9375 51.574219 5.664062 50.976562 6.453125 50.453125 C 7.238281 49.925781 8.070312 49.480469 8.945312 49.117188 C 9.820312 48.757812 10.722656 48.484375 11.652344 48.296875 C 12.582031 48.113281 13.519531 48.019531 14.464844 48.019531 Z M 14.464844 48.019531 " fill-opacity="1" fill-rule="nonzero"/></g></g><g clip-path="url(#8fc0200f12)"><g clip-path="url(#6dce68fe86)"><path fill="#737373" d="M 14.464844 95.996094 L 215.804688 95.996094 C 216.753906 95.996094 217.691406 96.089844 218.621094 96.273438 C 219.546875 96.457031 220.449219 96.730469 221.324219 97.09375 C 222.199219 97.457031 223.03125 97.902344 223.820312 98.425781 C 224.605469 98.953125 225.335938 99.550781 226.003906 100.21875 C 226.675781 100.890625 227.273438 101.617188 227.796875 102.40625 C 228.324219 103.195312 228.769531 104.023438 229.132812 104.898438 C 229.492188 105.773438 229.765625 106.675781 229.953125 107.605469 C 230.136719 108.535156 230.230469 109.472656 230.230469 110.417969 L 230.230469 117.15625 C 230.230469 118.105469 230.136719 119.042969 229.953125 119.972656 C 229.765625 120.902344 229.492188 121.800781 229.132812 122.675781 C 228.769531 123.550781 228.324219 124.382812 227.796875 125.171875 C 227.273438 125.957031 226.675781 126.6875 226.003906 127.355469 C 225.335938 128.027344 224.605469 128.625 223.820312 129.152344 C 223.03125 129.675781 222.199219 130.121094 221.324219 130.484375 C 220.449219 130.847656 219.546875 131.121094 218.621094 131.304688 C 217.691406 131.488281 216.753906 131.582031 215.804688 131.582031 L 14.464844 131.582031 C 13.519531 131.582031 12.582031 131.488281 11.652344 131.304688 C 10.722656 131.121094 9.820312 130.847656 8.945312 130.484375 C 8.070312 130.121094 7.238281 129.675781 6.453125 129.152344 C 5.664062 128.625 4.9375 128.027344 4.265625 127.355469 C 3.597656 126.6875 3 125.957031 2.472656 125.171875 C 1.945312 124.382812 1.503906 123.550781 1.140625 122.675781 C 0.777344 121.800781 0.503906 120.902344 0.320312 119.972656 C 0.132812 119.042969 0.0429688 118.105469 0.0429688 117.15625 L 0.0429688 110.417969 C 0.0429688 109.472656 0.132812 108.535156 0.320312 107.605469 C 0.503906 106.675781 0.777344 105.773438 1.140625 104.898438 C 1.503906 104.023438 1.945312 103.195312 2.472656 102.40625 C 3 101.617188 3.597656 100.890625 4.265625 100.21875 C 4.9375 99.550781 5.664062 98.953125 6.453125 98.425781 C 7.238281 97.902344 8.070312 97.457031 8.945312 97.09375 C 9.820312 96.730469 10.722656 96.457031 11.652344 96.273438 C 12.582031 96.089844 13.519531 95.996094 14.464844 95.996094 Z M 14.464844 95.996094 " fill-opacity="1" fill-rule="nonzero"/></g></g><g clip-path="url(#7d5299933e)"><g clip-path="url(#7ec7590785)"><path fill="#737373" d="M 14.464844 143.972656 L 215.804688 143.972656 C 216.753906 143.972656 217.691406 144.0625 218.621094 144.25 C 219.546875 144.433594 220.449219 144.707031 221.324219 145.070312 C 222.199219 145.429688 223.03125 145.875 223.820312 146.402344 C 224.605469 146.929688 225.335938 147.527344 226.003906 148.195312 C 226.675781 148.863281 227.273438 149.59375 227.796875 150.382812 C 228.324219 151.167969 228.769531 152 229.132812 152.875 C 229.492188 153.75 229.765625 154.652344 229.953125 155.582031 C 230.136719 156.507812 230.230469 157.449219 230.230469 158.394531 L 230.230469 165.132812 C 230.230469 166.078125 230.136719 167.019531 229.953125 167.945312 C 229.765625 168.875 229.492188 169.777344 229.132812 170.652344 C 228.769531 171.527344 228.324219 172.359375 227.796875 173.144531 C 227.273438 173.933594 226.675781 174.664062 226.003906 175.332031 C 225.335938 176 224.605469 176.597656 223.820312 177.125 C 223.03125 177.652344 222.199219 178.097656 221.324219 178.457031 C 220.449219 178.820312 219.546875 179.09375 218.621094 179.277344 C 217.691406 179.464844 216.753906 179.554688 215.804688 179.554688 L 14.464844 179.554688 C 13.519531 179.554688 12.582031 179.464844 11.652344 179.277344 C 10.722656 179.09375 9.820312 178.820312 8.945312 178.457031 C 8.070312 178.097656 7.238281 177.652344 6.453125 177.125 C 5.664062 176.597656 4.9375 176 4.265625 175.332031 C 3.597656 174.664062 3 173.933594 2.472656 173.144531 C 1.945312 172.359375 1.503906 171.527344 1.140625 170.652344 C 0.777344 169.777344 0.503906 168.875 0.320312 167.945312 C 0.132812 167.019531 0.0429688 166.078125 0.0429688 165.132812 L 0.0429688 158.394531 C 0.0429688 157.449219 0.132812 156.507812 0.320312 155.582031 C 0.503906 154.652344 0.777344 153.75 1.140625 152.875 C 1.503906 152 1.945312 151.167969 2.472656 150.382812 C 3 149.59375 3.597656 148.863281 4.265625 148.195312 C 4.9375 147.527344 5.664062 146.929688 6.453125 146.402344 C 7.238281 145.875 8.070312 145.429688 8.945312 145.070312 C 9.820312 144.707031 10.722656 144.433594 11.652344 144.25 C 12.582031 144.0625 13.519531 143.972656 14.464844 143.972656 Z M 14.464844 143.972656 " fill-opacity="1" fill-rule="nonzero"/></g></g></svg>