<svg width="51" height="51" viewBox="0 0 51 51"  xmlns="http://www.w3.org/2000/svg">
<path d="M32.0921 11.7305C34.0987 11.6051 36.0773 12.3018 37.5683 13.6673C38.9339 15.1583 39.6306 17.137 39.5191 19.1574V32.1721C39.6445 34.1926 38.9339 36.1712 37.5823 37.6622C36.0913 39.0278 34.0987 39.7245 32.0921 39.5991H19.0774C17.0569 39.7245 15.0782 39.0278 13.5872 37.6622C12.2216 36.1712 11.5249 34.1926 11.6503 32.1721V19.1574C11.5249 17.137 12.2216 15.1583 13.5872 13.6673C15.0782 12.3018 17.0569 11.6051 19.0774 11.7305H32.0921ZM31.7298 18.0984C30.8659 17.2345 29.4724 17.2345 28.6085 18.0984L27.6749 19.046C27.5355 19.1853 27.5355 19.4222 27.6749 19.5615C27.6749 19.5615 27.7022 19.5887 27.7509 19.6371L28.0937 19.978C28.2919 20.1753 28.5394 20.4216 28.7879 20.6693L29.6305 21.5115C29.8063 21.6882 29.923 21.8065 29.9323 21.8189C30.0855 21.9861 30.1831 22.2091 30.1831 22.4599C30.1831 22.9615 29.779 23.3795 29.2634 23.3795C29.0265 23.3795 28.8036 23.282 28.6503 23.1287L26.3232 20.8156C26.2118 20.7042 26.0167 20.7042 25.9052 20.8156L19.2585 27.4623C18.7987 27.9221 18.5339 28.5352 18.52 29.1901L18.4364 32.4926C18.4364 32.6737 18.4921 32.8409 18.6175 32.9663C18.7429 33.0917 18.9101 33.1614 19.0913 33.1614H22.3659C23.0347 33.1614 23.6757 32.8967 24.1634 32.4229L33.5413 23.0173C34.3913 22.1533 34.3913 20.7599 33.5413 19.9099L31.7298 18.0984Z" />
</svg>
