<svg width="51" height="51" viewBox="0 0 51 51"  xmlns="http://www.w3.org/2000/svg">
<path d="M31.6297 11.6699C36.3574 11.6699 39.5333 14.9871 39.5333 19.923V31.3143C39.5333 36.2502 36.3574 39.5673 31.6283 39.5673H19.5395C14.8119 39.5673 11.6359 36.2502 11.6359 31.3143V19.923C11.6359 14.9871 14.8119 11.6699 19.5395 11.6699H31.6297ZM33.168 26.3859C31.6727 25.4531 30.5184 26.763 30.207 27.1819C29.9068 27.5864 29.6487 28.0326 29.3766 28.4789C28.7117 29.5801 27.9501 30.8497 26.6316 31.5882C24.7156 32.6491 23.261 31.6717 22.2147 30.9606C21.8219 30.6957 21.4404 30.4452 21.0603 30.2783C20.1233 29.8738 19.2803 30.3344 18.0292 31.9236C17.3727 32.7542 16.7219 33.5776 16.0626 34.3981C15.6685 34.889 15.7625 35.6461 16.2941 35.9743C17.1427 36.4969 18.1778 36.7776 19.3476 36.7776H31.1033C31.7667 36.7776 32.4316 36.6869 33.0656 36.4796C34.4935 36.0132 35.6268 34.9451 36.2187 33.5344C36.7181 32.3483 36.9607 30.9088 36.4936 29.7111C36.338 29.3138 36.1051 28.9438 35.7783 28.6185C34.9213 27.7678 34.1204 26.9732 33.168 26.3859ZM20.701 17.2494C18.7779 17.2494 17.2154 18.814 17.2154 20.7366C17.2154 22.6591 18.7779 24.2237 20.701 24.2237C22.6226 24.2237 24.1866 22.6591 24.1866 20.7366C24.1866 18.814 22.6226 17.2494 20.701 17.2494Z" fill="#5D7285"/>
</svg>
