<svg width="66" height="24" viewBox="0 0 66 24" fill="none" xmlns="http://www.w3.org/2000/svg">
<rect width="66" height="24" rx="12" fill="#E9F5FE"/>
<circle cx="12" cy="12" r="8" fill="#2196F3"/>
<path d="M47.109 17.091C46.2683 17.091 45.5013 16.896 44.808 16.506C44.1147 16.1073 43.5643 15.557 43.157 14.855C42.7583 14.1443 42.559 13.347 42.559 12.463C42.559 11.579 42.7583 10.786 43.157 10.084C43.5643 9.37333 44.1147 8.823 44.808 8.433C45.5013 8.03433 46.2683 7.835 47.109 7.835C47.9583 7.835 48.7297 8.03433 49.423 8.433C50.1163 8.823 50.6623 9.369 51.061 10.071C51.4597 10.773 51.659 11.5703 51.659 12.463C51.659 13.3557 51.4597 14.153 51.061 14.855C50.6623 15.557 50.1163 16.1073 49.423 16.506C48.7297 16.896 47.9583 17.091 47.109 17.091ZM47.109 16.064C47.7417 16.064 48.3093 15.9167 48.812 15.622C49.3233 15.3273 49.722 14.907 50.008 14.361C50.3027 13.815 50.45 13.1823 50.45 12.463C50.45 11.735 50.3027 11.1023 50.008 10.565C49.722 10.019 49.3277 9.59867 48.825 9.304C48.3223 9.00933 47.7503 8.862 47.109 8.862C46.4677 8.862 45.8957 9.00933 45.393 9.304C44.8903 9.59867 44.4917 10.019 44.197 10.565C43.911 11.1023 43.768 11.735 43.768 12.463C43.768 13.1823 43.911 13.815 44.197 14.361C44.4917 14.907 44.8903 15.3273 45.393 15.622C45.9043 15.9167 46.4763 16.064 47.109 16.064ZM60.6047 17H59.4217L54.6637 9.785V17H53.4807V7.926H54.6637L59.4217 15.128V7.926H60.6047V17Z" fill="#333F49"/>
</svg>
